As promised, as soon as it was available for download it is on the greatest Torrent site in the world. 

                                                                                                       

                                                                                                  

Enjoy and please share.											

													

	

TTLTTLTTLTTLTTLTTLTTLTTLTTLTTLTTLTTLTTLTTLTTLTTLTTLTTLTTLTTLTTLTTLTTLTTLTTLTTLTTLTT	

													

													

											

Camelot.S01E05.720p.WEB.DL.DD5.1.H264.KiNGS.mkv
Format                           : Matroska
File size                        : 1.60 GiB
Duration                         : 51mn 26s
Overall bit rate                 : 4 455 Kbps
Movie name                       : Camelot.S01E05.720p.WEB.DL.DD5.1.H264.KiNGS.mkv 11840
Encoded date                     : UTC 2011-07-05 13:05:33
Writing application              : mkvmerge v2.9.8 ('C'est le bon') built on Aug 13 2009 12:49:06
Writing library                  : libebml v0.7.7 + libmatroska v0.8.1

Video
ID                               : 1
Format                           : AVC
Format/Info                      : Advanced Video Codec
Format profile                   : High@L3.1
Format settings, CABAC           : No
Format settings, ReFrames        : 2 frames
Muxing mode                      : Container profile=Unknown@3.1
Codec ID                         : V_MPEG4/ISO/AVC
Duration                         : 51mn 23s
Bit rate                         : 3 983 Kbps
Width                            : 1 280 pixels
Height                           : 718 pixels
Display aspect ratio             : 16:9
Frame rate                       : 23.976 fps
Resolution                       : 8 bits
Colorimetry                      : 4:2:0
Scan type                        : Progressive
Bits/(Pixel*Frame)               : 0.181
Stream size                      : 1.43 GiB (89%)
Language                         : English
Color primaries                  : BT.709-5, BT.1361, IEC 61966-2-4, SMPTE RP177
Transfer characteristics         : BT.709-5, BT.1361
Matrix coefficients              : BT.709-5, BT.1361, IEC 61966-2-4 709, SMPTE RP177

Audio
ID                               : 2
Format                           : AC-3
Format/Info                      : Audio Coding 3
Codec ID                         : A_AC3
Duration                         : 51mn 26s
Bit rate mode                    : Constant
Bit rate                         : 384 Kbps
Channel(s)                       : 6 channels
Channel positions                : Front: L C R, Surround: L R, LFE
Sampling rate                    : 48.0 KHz
Stream size                      : 141 MiB (9%)
Language                         : English

